<svg xmlns="http://www.w3.org/2000/svg" xmlns:xlink="http://www.w3.org/1999/xlink" width="1920" height="960" viewBox="0 0 1920 960"><defs><clipPath id="a"><rect width="1920" height="960" rx="80" fill="#003c3c"/></clipPath><linearGradient id="b" x1="0.294" y1="-0.004" x2="0.284" y2="0.703" gradientUnits="objectBoundingBox"><stop offset="0" stop-color="#003c3c"/><stop offset="1" stop-color="#e6f0f0"/></linearGradient><linearGradient id="c" x1="0.542" y1="0.036" x2="0.649" y2="0.885" xlink:href="#b"/><linearGradient id="d" x1="0.264" y1="0.86" x2="0.09" y2="0.175" gradientUnits="objectBoundingBox"><stop offset="0" stop-color="#00dc82"/><stop offset="1" stop-color="#003c3c"/></linearGradient><clipPath id="f"><rect width="1920" height="960"/></clipPath></defs><g id="e" clip-path="url(#f)"><rect width="1920" height="960" fill="rgba(255,255,255,0)"/><g clip-path="url(#a)"><rect width="1920" height="960" fill="#003c3c"/><path d="M2380.364,888.729,2000.393,230.606A461.112,461.112,0,0,0,1601.048,0H841.094A461.165,461.165,0,0,0,441.761,230.508L61.779,888.729a460.927,460.927,0,0,0,0,461.017l379.983,658.221a461.189,461.189,0,0,0,399.333,230.508h759.954a461.251,461.251,0,0,0,399.345-230.508l379.971-658.221A460.981,460.981,0,0,0,2380.364,888.729Z" transform="matrix(-0.966, -0.259, 0.259, -0.966, 1108.78, 846.164)" opacity="0.149" fill="url(#b)"/><path d="M973.3,1379.489H525.86a303.112,303.112,0,0,1-261.758-151.1L40.374,840.843a302.929,302.929,0,0,1,0-302.2L264.1,151.1A303.125,303.125,0,0,1,525.86,0H973.3a303.163,303.163,0,0,1,261.763,151.092l223.723,387.554a302.962,302.962,0,0,1,0,302.2L1235.07,1228.332A303.1,303.1,0,0,1,973.3,1379.489ZM525.86,61.526a241.424,241.424,0,0,0-208.479,120.34L93.659,569.407a241.242,241.242,0,0,0,0,240.669l223.729,387.552A241.412,241.412,0,0,0,525.86,1317.963H973.3a241.4,241.4,0,0,0,208.483-120.392l223.719-387.489a241.273,241.273,0,0,0,0-240.67l-223.721-387.55A241.459,241.459,0,0,0,973.3,61.526Z" transform="matrix(-0.259, -0.966, 0.966, -0.259, 1480.47, 1991.858)" fill="url(#c)"/><path d="M634.215,916.716H333.179A213.261,213.261,0,0,1,149.014,810.409L-1.51,549.667a213.136,213.136,0,0,1,0-212.624L149.011,76.311A213.27,213.27,0,0,1,333.179-30H634.215A213.3,213.3,0,0,1,818.383,76.3L968.9,337.049a213.16,213.16,0,0,1,0,212.623l-150.514,260.7A213.252,213.252,0,0,1,634.215,916.716ZM333.179,30a153.1,153.1,0,0,0-132.208,76.314L50.453,367.047a152.979,152.979,0,0,0,0,152.616L200.974,780.407a153.091,153.091,0,0,0,132.2,76.309H634.215a153.086,153.086,0,0,0,132.209-76.347l150.517-260.7a153,153,0,0,0,0-152.617L766.425,106.308A153.122,153.122,0,0,0,634.215,30Z" transform="matrix(0.966, 0.259, -0.259, 0.966, 1657.353, -177.08)" fill="url(#d)"/></g><g transform="translate(146.624 157.844)"><g transform="translate(116.507 24.579)"><path d="M76.333,20.5H86.39L107.7,54.578V20.5h9.284V68.786H107L85.616,34.78V68.786H76.333Z" transform="translate(-76.333 -19.954)" fill="#e6f0f0"/><path d="M141,63.986h-8.651V58.592c-1.969,3.8-5.978,5.933-11.041,5.933-8.018,0-13.226-5.656-13.226-13.8V29.218h8.651v19.73c0,4.76,2.956,8.07,7.386,8.07,4.854,0,8.229-3.725,8.229-8.829V29.218H141Z" transform="translate(-58.85 -15.154)" fill="#e6f0f0"/><path d="M157.891,63.631l-8.3-11.589-8.3,11.589h-9.216l12.8-18.142L133.062,28.863h9.425l7.105,10,7.031-10h9.5L154.232,45.489l12.8,18.142Z" transform="translate(-45.638 -15.349)" fill="#e6f0f0"/><path d="M171.5,22.456V32.94h9.848v7.106H171.5V57.305a2.163,2.163,0,0,0,.653,1.546,2.251,2.251,0,0,0,1.575.642h7.62v8.2h-5.7c-7.738,0-12.8-4.416-12.8-12.135V40.053h-6.962V32.94h4.368a2.928,2.928,0,0,0,3.224-3.159V22.456Z" transform="translate(-32.524 -18.877)" fill="#e6f0f0"/><path d="M191.285,57.851V20.5h9.281V54.989c0,9.314-4.571,13.8-12.308,13.8h-10.8v-8.2H188.5a2.817,2.817,0,0,0,1.971-.8,2.708,2.708,0,0,0,.816-1.933" transform="translate(-20.65 -19.954)" fill="#e6f0f0"/><path d="M195.945,52.769h8.936c.495,5.393,4.153,8.828,10.061,8.828,5.275,0,8.936-2.066,8.936-6.344,0-10.349-26.465-3.176-26.465-21.662.006-7.932,6.97-13.443,16.975-13.443,10.411,0,17.443,5.862,17.873,14.9h-8.888c-.419-4.207-3.78-7.035-9-7.035-4.854,0-7.877,2.208-7.877,5.586,0,10.693,26.809,2.7,26.809,21.524,0,8.967-7.528,14.418-18.358,14.418-11.183,0-18.5-6.624-18.989-16.764" transform="translate(-10.468 -20.148)" fill="#e6f0f0"/></g><g transform="translate(3.376 12.102)"><path d="M44.275,15.45a6.771,6.771,0,0,0-11.685,0L4.29,64.11a6.7,6.7,0,0,0,5.843,10.046H32.225a6.469,6.469,0,0,1-1.362-8.173L52.3,29.243Z" transform="translate(-3.376 -12.102)" fill="#00dc82" fill-rule="evenodd" opacity="0.504"/><path d="M49.9,22.117a5.637,5.637,0,0,1,9.67,0L82.992,61.929a5.48,5.48,0,0,1-4.835,8.219H31.315a5.48,5.48,0,0,1-4.835-8.219Z" transform="translate(8.93 -8.095)" fill="#00dc82"/></g></g><g transform="translate(-3 -4)"><path d="M27.392-44.608v32.96A11.707,11.707,0,0,1,24-2.848a12.31,12.31,0,0,1-8.96,3.3,12.262,12.262,0,0,1-9.024-3.36Q2.624-6.272,2.624-12.1H8.448a8.546,8.546,0,0,0,1.7,5.312,5.882,5.882,0,0,0,4.9,2.048A5.922,5.922,0,0,0,19.9-6.688a7.567,7.567,0,0,0,1.6-4.96v-32.96Zm9.28,26.944a19.7,19.7,0,0,1,2.176-9.44,15.788,15.788,0,0,1,5.984-6.3,16.413,16.413,0,0,1,8.48-2.24,15.563,15.563,0,0,1,8,1.984,13.219,13.219,0,0,1,5.056,4.992v-6.4h5.888V0H66.368V-6.528A13.721,13.721,0,0,1,61.216-1.44,15.412,15.412,0,0,1,53.248.576a15.9,15.9,0,0,1-8.448-2.3,16.159,16.159,0,0,1-5.952-6.464A20.131,20.131,0,0,1,36.672-17.664Zm29.7.064a14.259,14.259,0,0,0-1.6-6.912,11.3,11.3,0,0,0-4.32-4.512,11.769,11.769,0,0,0-5.984-1.568,11.784,11.784,0,0,0-5.952,1.536,11.143,11.143,0,0,0-4.288,4.48,14.259,14.259,0,0,0-1.6,6.912,14.588,14.588,0,0,0,1.6,7.008,11.319,11.319,0,0,0,4.288,4.544,11.6,11.6,0,0,0,5.952,1.568,11.769,11.769,0,0,0,5.984-1.568,11.249,11.249,0,0,0,4.32-4.544A14.446,14.446,0,0,0,66.368-17.6Zm28.8,12.224,10.88-29.7h6.208L98.5,0H91.712L77.952-35.072h6.272ZM115.84-17.664a19.7,19.7,0,0,1,2.176-9.44,15.788,15.788,0,0,1,5.984-6.3,16.413,16.413,0,0,1,8.48-2.24,15.563,15.563,0,0,1,8,1.984,13.219,13.219,0,0,1,5.056,4.992v-6.4h5.888V0h-5.888V-6.528a13.721,13.721,0,0,1-5.152,5.088A15.412,15.412,0,0,1,132.416.576a15.9,15.9,0,0,1-8.448-2.3,16.16,16.16,0,0,1-5.952-6.464A20.131,20.131,0,0,1,115.84-17.664Zm29.7.064a14.259,14.259,0,0,0-1.6-6.912,11.3,11.3,0,0,0-4.32-4.512,11.769,11.769,0,0,0-5.984-1.568,11.784,11.784,0,0,0-5.952,1.536,11.143,11.143,0,0,0-4.288,4.48,14.259,14.259,0,0,0-1.6,6.912,14.588,14.588,0,0,0,1.6,7.008,11.319,11.319,0,0,0,4.288,4.544,11.6,11.6,0,0,0,5.952,1.568,11.769,11.769,0,0,0,5.984-1.568,11.249,11.249,0,0,0,4.32-4.544A14.446,14.446,0,0,0,145.536-17.6ZM173.7.576A18.141,18.141,0,0,1,166.464-.8a12.2,12.2,0,0,1-5.056-3.84A10.218,10.218,0,0,1,159.36-10.3h6.016a5.9,5.9,0,0,0,2.464,4.288,9.377,9.377,0,0,0,5.792,1.664,8.428,8.428,0,0,0,5.248-1.472,4.5,4.5,0,0,0,1.92-3.712,3.66,3.66,0,0,0-2.048-3.424,28.714,28.714,0,0,0-6.336-2.208,46.568,46.568,0,0,1-6.368-2.08,11.3,11.3,0,0,1-4.224-3.136,8.184,8.184,0,0,1-1.76-5.472,8.292,8.292,0,0,1,1.6-4.928,10.846,10.846,0,0,1,4.544-3.552,16.352,16.352,0,0,1,6.72-1.312,14.349,14.349,0,0,1,9.408,2.944,10.607,10.607,0,0,1,3.84,8.064h-5.824a6.018,6.018,0,0,0-2.208-4.416,8.233,8.233,0,0,0-5.408-1.664,8.342,8.342,0,0,0-4.992,1.344,4.153,4.153,0,0,0-1.856,3.52,3.858,3.858,0,0,0,1.12,2.848,8.181,8.181,0,0,0,2.816,1.792,48.52,48.52,0,0,0,4.7,1.5,50.666,50.666,0,0,1,6.144,2.016,10.744,10.744,0,0,1,4.064,2.976,7.958,7.958,0,0,1,1.76,5.184,8.876,8.876,0,0,1-1.6,5.184,10.671,10.671,0,0,1-4.512,3.616A16.128,16.128,0,0,1,173.7.576ZM192.512-17.6a19.841,19.841,0,0,1,2.176-9.5,15.656,15.656,0,0,1,6.048-6.3,17.377,17.377,0,0,1,8.864-2.24,17.3,17.3,0,0,1,10.656,3.136,14.8,14.8,0,0,1,5.536,8.7H219.52a9.006,9.006,0,0,0-3.488-5.056A10.764,10.764,0,0,0,209.6-30.72a10.317,10.317,0,0,0-8.064,3.424q-3.072,3.424-3.072,9.7,0,6.336,3.072,9.792A10.273,10.273,0,0,0,209.6-4.352,10.892,10.892,0,0,0,216-6.144a9.086,9.086,0,0,0,3.52-5.12h6.272a15.426,15.426,0,0,1-5.632,8.608A16.87,16.87,0,0,1,209.6.576a17.377,17.377,0,0,1-8.864-2.24A15.606,15.606,0,0,1,194.688-8,20.174,20.174,0,0,1,192.512-17.6ZM239.36-29.376a11.172,11.172,0,0,1,4.384-4.672,13.55,13.55,0,0,1,6.944-1.664V-29.7h-1.536q-9.792,0-9.792,10.624V0h-5.824V-35.072h5.824Zm21.056-11.392A3.83,3.83,0,0,1,257.6-41.92a3.831,3.831,0,0,1-1.152-2.816,3.83,3.83,0,0,1,1.152-2.816,3.83,3.83,0,0,1,2.816-1.152,3.652,3.652,0,0,1,2.72,1.152,3.887,3.887,0,0,1,1.12,2.816,3.887,3.887,0,0,1-1.12,2.816A3.652,3.652,0,0,1,260.416-40.768Zm2.816,5.7V0h-5.824V-35.072Zm15.744,6.464a13.888,13.888,0,0,1,5.152-5.024,15.412,15.412,0,0,1,7.968-2.016,16.413,16.413,0,0,1,8.48,2.24,15.788,15.788,0,0,1,5.984,6.3,19.7,19.7,0,0,1,2.176,9.44,20.131,20.131,0,0,1-2.176,9.472,16.085,16.085,0,0,1-5.984,6.464,16.063,16.063,0,0,1-8.48,2.3,15.285,15.285,0,0,1-7.9-2.016,14.416,14.416,0,0,1-5.216-5.024v23.1h-5.824V-35.072h5.824Zm23.808,10.944a14.259,14.259,0,0,0-1.6-6.912,11.078,11.078,0,0,0-4.32-4.48,11.96,11.96,0,0,0-5.984-1.536,11.649,11.649,0,0,0-5.92,1.568,11.464,11.464,0,0,0-4.352,4.544,14.079,14.079,0,0,0-1.632,6.88,14.216,14.216,0,0,0,1.632,6.944,11.464,11.464,0,0,0,4.352,4.544,11.649,11.649,0,0,0,5.92,1.568,11.769,11.769,0,0,0,5.984-1.568,11.249,11.249,0,0,0,4.32-4.544A14.588,14.588,0,0,0,302.784-17.664ZM323.52-30.272V-9.6a4.918,4.918,0,0,0,1.088,3.616,5.363,5.363,0,0,0,3.776,1.056h4.288V0h-5.248q-4.864,0-7.3-2.24T317.7-9.6V-30.272h-4.544v-4.8H317.7V-43.9h5.824v8.832h9.152v4.8Zm31.1,12.608A19.7,19.7,0,0,1,356.8-27.1a15.788,15.788,0,0,1,5.984-6.3,16.413,16.413,0,0,1,8.48-2.24,15.563,15.563,0,0,1,8,1.984,13.22,13.22,0,0,1,5.056,4.992v-6.4h5.888V0H384.32V-6.528a13.721,13.721,0,0,1-5.152,5.088A15.412,15.412,0,0,1,371.2.576a15.9,15.9,0,0,1-8.448-2.3A16.159,16.159,0,0,1,356.8-8.192,20.131,20.131,0,0,1,354.624-17.664Zm29.7.064a14.259,14.259,0,0,0-1.6-6.912,11.3,11.3,0,0,0-4.32-4.512,11.769,11.769,0,0,0-5.984-1.568,11.784,11.784,0,0,0-5.952,1.536,11.143,11.143,0,0,0-4.288,4.48,14.259,14.259,0,0,0-1.6,6.912,14.588,14.588,0,0,0,1.6,7.008,11.319,11.319,0,0,0,4.288,4.544,11.6,11.6,0,0,0,5.952,1.568A11.769,11.769,0,0,0,378.4-6.112a11.249,11.249,0,0,0,4.32-4.544A14.446,14.446,0,0,0,384.32-17.6Zm32.832-18.112A14.214,14.214,0,0,1,427.52-31.84q3.968,3.872,3.968,11.168V0h-5.76V-19.84q0-5.248-2.624-8.032a9.376,9.376,0,0,0-7.168-2.784,9.6,9.6,0,0,0-7.328,2.88q-2.72,2.88-2.72,8.384V0h-5.824V-35.072h5.824v4.992a11.563,11.563,0,0,1,4.7-4.16A14.591,14.591,0,0,1,417.152-35.712Zm26.88-5.056a3.831,3.831,0,0,1-2.816-1.152,3.831,3.831,0,0,1-1.152-2.816,3.83,3.83,0,0,1,1.152-2.816,3.831,3.831,0,0,1,2.816-1.152,3.652,3.652,0,0,1,2.72,1.152,3.887,3.887,0,0,1,1.12,2.816,3.887,3.887,0,0,1-1.12,2.816A3.652,3.652,0,0,1,444.032-40.768Zm2.816,5.7V0h-5.824V-35.072Zm52.1-.64a15.341,15.341,0,0,1,7.3,1.7,12.237,12.237,0,0,1,5.056,5.088,16.987,16.987,0,0,1,1.856,8.256V0h-5.76V-19.84q0-5.248-2.592-8.032a9.111,9.111,0,0,0-7.008-2.784,9.364,9.364,0,0,0-7.232,2.912q-2.688,2.912-2.688,8.416V0h-5.76V-19.84q0-5.248-2.592-8.032a9.111,9.111,0,0,0-7.008-2.784,9.364,9.364,0,0,0-7.232,2.912q-2.688,2.912-2.688,8.416V0h-5.824V-35.072h5.824v5.056a11.509,11.509,0,0,1,4.64-4.224,14.051,14.051,0,0,1,6.432-1.472,15.177,15.177,0,0,1,7.808,1.984,12.106,12.106,0,0,1,5.056,5.824,11.5,11.5,0,0,1,4.864-5.76A14.328,14.328,0,0,1,498.944-35.712Zm21.568,18.048a19.7,19.7,0,0,1,2.176-9.44,15.788,15.788,0,0,1,5.984-6.3,16.413,16.413,0,0,1,8.48-2.24,15.563,15.563,0,0,1,8,1.984,13.22,13.22,0,0,1,5.056,4.992v-6.4H556.1V0h-5.888V-6.528a13.721,13.721,0,0,1-5.152,5.088A15.412,15.412,0,0,1,537.088.576a15.9,15.9,0,0,1-8.448-2.3,16.16,16.16,0,0,1-5.952-6.464A20.131,20.131,0,0,1,520.512-17.664Zm29.7.064a14.259,14.259,0,0,0-1.6-6.912,11.3,11.3,0,0,0-4.32-4.512,11.769,11.769,0,0,0-5.984-1.568,11.784,11.784,0,0,0-5.952,1.536,11.143,11.143,0,0,0-4.288,4.48,14.258,14.258,0,0,0-1.6,6.912,14.587,14.587,0,0,0,1.6,7.008,11.319,11.319,0,0,0,4.288,4.544A11.6,11.6,0,0,0,538.3-4.544a11.769,11.769,0,0,0,5.984-1.568,11.25,11.25,0,0,0,4.32-4.544A14.447,14.447,0,0,0,550.208-17.6Zm22.848-12.672V-9.6a4.918,4.918,0,0,0,1.088,3.616,5.363,5.363,0,0,0,3.776,1.056h4.288V0H576.96q-4.864,0-7.3-2.24T567.232-9.6V-30.272h-4.544v-4.8h4.544V-43.9h5.824v8.832h9.152v4.8Zm19.2-10.5a3.831,3.831,0,0,1-2.816-1.152,3.83,3.83,0,0,1-1.152-2.816,3.83,3.83,0,0,1,1.152-2.816,3.831,3.831,0,0,1,2.816-1.152,3.652,3.652,0,0,1,2.72,1.152,3.887,3.887,0,0,1,1.12,2.816,3.887,3.887,0,0,1-1.12,2.816A3.652,3.652,0,0,1,592.256-40.768Zm2.816,5.7V0h-5.824V-35.072ZM620.288.576a17.956,17.956,0,0,1-8.928-2.24,15.947,15.947,0,0,1-6.272-6.368,19.524,19.524,0,0,1-2.272-9.568,18.962,18.962,0,0,1,2.336-9.5,16.1,16.1,0,0,1,6.368-6.336,18.474,18.474,0,0,1,9.024-2.208,18.475,18.475,0,0,1,9.024,2.208,16.153,16.153,0,0,1,6.368,6.3,18.916,18.916,0,0,1,2.336,9.536,18.689,18.689,0,0,1-2.4,9.568,16.634,16.634,0,0,1-6.5,6.368A18.626,18.626,0,0,1,620.288.576Zm0-5.12a12.3,12.3,0,0,0,5.888-1.472,11.2,11.2,0,0,0,4.448-4.416,14.144,14.144,0,0,0,1.7-7.168,14.364,14.364,0,0,0-1.664-7.168,10.9,10.9,0,0,0-4.352-4.384,12.142,12.142,0,0,0-5.824-1.44,12.086,12.086,0,0,0-5.856,1.44,10.557,10.557,0,0,0-4.256,4.384,14.83,14.83,0,0,0-1.6,7.168,15.23,15.23,0,0,0,1.568,7.232,10.422,10.422,0,0,0,4.192,4.384A11.775,11.775,0,0,0,620.288-4.544ZM663.04-35.712a14.214,14.214,0,0,1,10.368,3.872q3.968,3.872,3.968,11.168V0h-5.76V-19.84q0-5.248-2.624-8.032a9.376,9.376,0,0,0-7.168-2.784,9.6,9.6,0,0,0-7.328,2.88q-2.72,2.88-2.72,8.384V0h-5.824V-35.072h5.824v4.992a11.562,11.562,0,0,1,4.7-4.16A14.591,14.591,0,0,1,663.04-35.712ZM736-18.88a34.277,34.277,0,0,1-.192,3.52H707.776a11.339,11.339,0,0,0,3.552,8.1,11.3,11.3,0,0,0,7.84,2.912,10.77,10.77,0,0,0,6.3-1.76,9.317,9.317,0,0,0,3.552-4.7H735.3a15.077,15.077,0,0,1-5.632,8.224,17,17,0,0,1-10.5,3.168,17.728,17.728,0,0,1-8.928-2.24,15.856,15.856,0,0,1-6.176-6.368,19.749,19.749,0,0,1-2.24-9.568A20.032,20.032,0,0,1,704-27.136a15.276,15.276,0,0,1,6.112-6.3,18.194,18.194,0,0,1,9.056-2.208A17.6,17.6,0,0,1,728-33.472a15.067,15.067,0,0,1,5.92,5.984A17.66,17.66,0,0,1,736-18.88ZM729.984-20.1a10.743,10.743,0,0,0-1.472-5.728,9.572,9.572,0,0,0-4-3.648,12.476,12.476,0,0,0-5.6-1.248,10.794,10.794,0,0,0-7.52,2.816A11.474,11.474,0,0,0,707.84-20.1Zm30.784-15.616a14.214,14.214,0,0,1,10.368,3.872q3.968,3.872,3.968,11.168V0h-5.76V-19.84q0-5.248-2.624-8.032a9.376,9.376,0,0,0-7.168-2.784,9.6,9.6,0,0,0-7.328,2.88q-2.72,2.88-2.72,8.384V0H743.68V-35.072H749.5v4.992a11.562,11.562,0,0,1,4.7-4.16A14.591,14.591,0,0,1,760.768-35.712Zm38.336.064a15.607,15.607,0,0,1,7.968,1.984,13.165,13.165,0,0,1,5.088,4.992v-6.4h5.888V.768A17.512,17.512,0,0,1,816,9.312a14.6,14.6,0,0,1-5.856,5.856,17.979,17.979,0,0,1-8.864,2.112,19.437,19.437,0,0,1-11.52-3.264,12.756,12.756,0,0,1-5.44-8.9h5.76a9.164,9.164,0,0,0,3.968,5.152,13,13,0,0,0,7.232,1.952,10.672,10.672,0,0,0,7.84-3.008q3.04-3.008,3.04-8.448v-7.36a14.017,14.017,0,0,1-5.12,5.12A15.055,15.055,0,0,1,799.1.576a16.063,16.063,0,0,1-8.48-2.3,16.085,16.085,0,0,1-5.984-6.464,20.131,20.131,0,0,1-2.176-9.472,19.7,19.7,0,0,1,2.176-9.44,15.788,15.788,0,0,1,5.984-6.3A16.413,16.413,0,0,1,799.1-35.648ZM812.16-17.6a14.259,14.259,0,0,0-1.6-6.912,11.3,11.3,0,0,0-4.32-4.512,11.769,11.769,0,0,0-5.984-1.568,11.784,11.784,0,0,0-5.952,1.536,11.143,11.143,0,0,0-4.288,4.48,14.258,14.258,0,0,0-1.6,6.912,14.587,14.587,0,0,0,1.6,7.008A11.319,11.319,0,0,0,794.3-6.112a11.6,11.6,0,0,0,5.952,1.568,11.769,11.769,0,0,0,5.984-1.568,11.25,11.25,0,0,0,4.32-4.544A14.447,14.447,0,0,0,812.16-17.6Zm18.752-23.168A3.831,3.831,0,0,1,828.1-41.92a3.83,3.83,0,0,1-1.152-2.816,3.83,3.83,0,0,1,1.152-2.816,3.831,3.831,0,0,1,2.816-1.152,3.652,3.652,0,0,1,2.72,1.152,3.887,3.887,0,0,1,1.12,2.816,3.887,3.887,0,0,1-1.12,2.816A3.652,3.652,0,0,1,830.912-40.768Zm2.816,5.7V0H827.9V-35.072Zm27.008-.64A14.214,14.214,0,0,1,871.1-31.84q3.968,3.872,3.968,11.168V0h-5.76V-19.84q0-5.248-2.624-8.032a9.376,9.376,0,0,0-7.168-2.784,9.6,9.6,0,0,0-7.328,2.88q-2.72,2.88-2.72,8.384V0h-5.824V-35.072h5.824v4.992a11.562,11.562,0,0,1,4.7-4.16A14.591,14.591,0,0,1,860.736-35.712ZM916.608-18.88a34.277,34.277,0,0,1-.192,3.52H888.384a11.339,11.339,0,0,0,3.552,8.1,11.3,11.3,0,0,0,7.84,2.912,10.77,10.77,0,0,0,6.3-1.76,9.317,9.317,0,0,0,3.552-4.7H915.9a15.077,15.077,0,0,1-5.632,8.224,17,17,0,0,1-10.5,3.168,17.728,17.728,0,0,1-8.928-2.24,15.856,15.856,0,0,1-6.176-6.368,19.749,19.749,0,0,1-2.24-9.568,20.032,20.032,0,0,1,2.176-9.536,15.276,15.276,0,0,1,6.112-6.3,18.194,18.194,0,0,1,9.056-2.208,17.6,17.6,0,0,1,8.832,2.176,15.067,15.067,0,0,1,5.92,5.984A17.66,17.66,0,0,1,916.608-18.88ZM910.592-20.1a10.743,10.743,0,0,0-1.472-5.728,9.572,9.572,0,0,0-4-3.648,12.476,12.476,0,0,0-5.6-1.248A10.794,10.794,0,0,0,892-27.9a11.474,11.474,0,0,0-3.552,7.808ZM926.144.384a3.831,3.831,0,0,1-2.816-1.152,3.831,3.831,0,0,1-1.152-2.816A3.831,3.831,0,0,1,923.328-6.4a3.831,3.831,0,0,1,2.816-1.152,3.652,3.652,0,0,1,2.72,1.152,3.887,3.887,0,0,1,1.12,2.816,3.887,3.887,0,0,1-1.12,2.816A3.652,3.652,0,0,1,926.144.384Z" transform="translate(150.376 570)" fill="#e6f0f0" opacity="0.596"/><path d="M69.58-18.62H30.66L24.22,0H3.64L38.78-97.86H61.6L96.74,0H76.02ZM64.26-34.3,50.12-75.18,35.98-34.3Zm85.12-44.38q13.86,0,22.4,8.75t8.54,24.43V0h-19.6V-42.84q0-9.24-4.62-14.21t-12.6-4.97q-8.12,0-12.81,4.97T126-42.84V0H106.4V-77.56H126v9.66a27.077,27.077,0,0,1,10.01-7.91A30.966,30.966,0,0,1,149.38-78.68Zm56-8.12a11.943,11.943,0,0,1-8.61-3.29,10.886,10.886,0,0,1-3.43-8.19,10.885,10.885,0,0,1,3.43-8.19,11.943,11.943,0,0,1,8.61-3.29,11.943,11.943,0,0,1,8.61,3.29,10.885,10.885,0,0,1,3.43,8.19,10.886,10.886,0,0,1-3.43,8.19A11.943,11.943,0,0,1,205.38-86.8Zm9.66,9.24V0h-19.6V-77.56Zm112.14-1.12q14.28,0,23.03,8.75t8.75,24.43V0h-19.6V-42.84q0-9.1-4.62-13.93t-12.6-4.83q-7.98,0-12.67,4.83t-4.69,13.93V0h-19.6V-42.84q0-9.1-4.62-13.93t-12.6-4.83q-8.12,0-12.81,4.83t-4.69,13.93V0h-19.6V-77.56h19.6v9.38a26.085,26.085,0,0,1,9.73-7.7,30.355,30.355,0,0,1,13.09-2.8,33.67,33.67,0,0,1,16.24,3.85,26.98,26.98,0,0,1,11.06,10.99,28.079,28.079,0,0,1,10.99-10.78A31.288,31.288,0,0,1,327.18-78.68Zm119,38.22a46.253,46.253,0,0,1-.56,7.56h-56.7q.7,8.4,5.88,13.16a18.131,18.131,0,0,0,12.74,4.76q10.92,0,15.54-9.38h21.14A35.329,35.329,0,0,1,431.34-5.95q-9.52,7.21-23.38,7.21a40.459,40.459,0,0,1-20.09-4.97,34.981,34.981,0,0,1-13.86-14.07,43.111,43.111,0,0,1-4.97-21,43.914,43.914,0,0,1,4.9-21.14,34.19,34.19,0,0,1,13.72-14,41.1,41.1,0,0,1,20.3-4.9,40.776,40.776,0,0,1,19.81,4.76,33.5,33.5,0,0,1,13.58,13.51A40.883,40.883,0,0,1,446.18-40.46Zm-20.3-5.6a15.543,15.543,0,0,0-5.46-12.11,19.343,19.343,0,0,0-13.02-4.55,17.791,17.791,0,0,0-12.25,4.41q-4.97,4.41-6.09,12.25ZM465.64.98a12.125,12.125,0,0,1-8.75-3.29,10.886,10.886,0,0,1-3.43-8.19,10.886,10.886,0,0,1,3.43-8.19,12.125,12.125,0,0,1,8.75-3.29,11.7,11.7,0,0,1,8.54,3.29,11,11,0,0,1,3.36,8.19,11,11,0,0,1-3.36,8.19A11.7,11.7,0,0,1,465.64.98ZM499.8-86.8a12.125,12.125,0,0,1-8.75-3.29,10.886,10.886,0,0,1-3.43-8.19,10.886,10.886,0,0,1,3.43-8.19,12.125,12.125,0,0,1,8.75-3.29,11.7,11.7,0,0,1,8.54,3.29,11,11,0,0,1,3.36,8.19,11,11,0,0,1-3.36,8.19A11.7,11.7,0,0,1,499.8-86.8Zm9.66,99.54q0,12.88-6.37,18.55t-18.27,5.67h-8.68V20.3h5.6q4.48,0,6.3-1.75t1.82-5.67V-77.56h19.6Zm45.5-11.48a40.9,40.9,0,0,1-17.08-3.43,30.18,30.18,0,0,1-11.97-9.31,23.594,23.594,0,0,1-4.83-13.02h19.74a10.753,10.753,0,0,0,4.41,7.42,15.34,15.34,0,0,0,9.59,2.94q5.6,0,8.75-2.24a6.78,6.78,0,0,0,3.15-5.74q0-3.78-3.85-5.67a72.444,72.444,0,0,0-12.25-4.13,103.812,103.812,0,0,1-14.21-4.34,24.669,24.669,0,0,1-9.52-6.86q-3.99-4.62-3.99-12.46a20.1,20.1,0,0,1,3.71-11.76,24.908,24.908,0,0,1,10.64-8.4,39.887,39.887,0,0,1,16.31-3.08q13.86,0,22.12,6.93t9.1,18.69H566.02a10.155,10.155,0,0,0-3.85-7.35q-3.43-2.73-9.17-2.73-5.32,0-8.19,1.96a6.248,6.248,0,0,0-2.87,5.46q0,3.92,3.92,5.95a60.874,60.874,0,0,0,12.18,4.13,103.387,103.387,0,0,1,13.86,4.34,24.488,24.488,0,0,1,9.45,6.93q3.99,4.69,4.13,12.39a20.545,20.545,0,0,1-3.71,12.04,24.438,24.438,0,0,1-10.64,8.33A40.312,40.312,0,0,1,554.96,1.26Z" transform="translate(149.36 455)" fill="#e6f0f0"/><g transform="translate(-1244.573 1.564)" opacity="0.801"><path d="M2076.807,403.535,2063.546,416.8l-5.207-5.207a4.027,4.027,0,0,0-5.7,5.7l8.054,8.054a4.026,4.026,0,0,0,5.7,0L2082.5,409.23a4.027,4.027,0,1,0-5.694-5.7Z" fill="#00dc82"/><path d="M2103.293,402.89a9.707,9.707,0,0,1-2.3-5.545,17.719,17.719,0,0,0-16.332-16.332,9.668,9.668,0,0,1-5.541-2.3,17.717,17.717,0,0,0-23.1,0,9.68,9.68,0,0,1-5.545,2.3,17.72,17.72,0,0,0-16.332,16.328,9.7,9.7,0,0,1-2.3,5.547,17.722,17.722,0,0,0,0,23.1,9.714,9.714,0,0,1,2.3,5.543,17.722,17.722,0,0,0,16.332,16.334,9.691,9.691,0,0,1,5.545,2.3,17.721,17.721,0,0,0,23.093,0,9.681,9.681,0,0,1,5.545-2.3A17.721,17.721,0,0,0,2101,431.532a9.713,9.713,0,0,1,2.3-5.547A17.719,17.719,0,0,0,2103.293,402.89Zm-6.127,17.872a17.7,17.7,0,0,0-4.2,10.129,9.7,9.7,0,0,1-8.939,8.941,17.687,17.687,0,0,0-10.131,4.2,9.7,9.7,0,0,1-12.647,0,17.7,17.7,0,0,0-10.131-4.2,9.7,9.7,0,0,1-8.938-8.945,17.7,17.7,0,0,0-4.2-10.125,9.712,9.712,0,0,1,0-12.649,17.7,17.7,0,0,0,4.2-10.131,9.7,9.7,0,0,1,8.938-8.939,17.7,17.7,0,0,0,10.135-4.2,9.7,9.7,0,0,1,12.643,0,17.691,17.691,0,0,0,10.131,4.2,9.7,9.7,0,0,1,8.939,8.943,17.715,17.715,0,0,0,4.2,10.129A9.709,9.709,0,0,1,2097.166,420.762Z" fill="#00dc82"/></g></g><g transform="translate(150 686)"><g transform="translate(484)"><rect width="155.747" height="95" rx="28" fill="#1fc17f" opacity="0.18"/><path d="M5.166-6.51Q9.2-10,11.529-12.243a25.827,25.827,0,0,0,3.885-4.683A9,9,0,0,0,16.968-21.8a5.963,5.963,0,0,0-1.2-3.948,4.634,4.634,0,0,0-3.759-1.428A4.813,4.813,0,0,0,8.169-25.6,6.554,6.554,0,0,0,6.72-21.378H2.1q.126-4.788,2.877-7.329a9.9,9.9,0,0,1,6.993-2.541,9.819,9.819,0,0,1,7.161,2.52,8.96,8.96,0,0,1,2.583,6.72,11.93,11.93,0,0,1-1.533,5.817,23.425,23.425,0,0,1-3.654,5q-2.121,2.205-5.4,5.1L9.24-4.41H22.554V-.42H2.142V-3.906Z" transform="translate(99.63 62)" fill="#00dc82" opacity="0.83"/><g transform="translate(-1921.018 -434.955)" opacity="0.85"><path d="M1968.956,493.215l12.436-21.315-4.659-8a3.928,3.928,0,0,0-6.778,0l-16.42,28.233a3.888,3.888,0,0,0,3.389,5.824h12.813a3.752,3.752,0,0,1-.781-4.742Z" fill="#00dc82" opacity="0.497"/><path d="M2006.34,493.19l-13.589-23.1a3.269,3.269,0,0,0-5.612,0l-13.589,23.1a3.178,3.178,0,0,0,2.807,4.765h27.177a3.177,3.177,0,0,0,2.8-4.765Z" fill="#00dc82"/></g></g><g transform="translate(248)"><rect width="208" height="95" rx="28" fill="#1fc17f" opacity="0.18"/><path d="M7.938-3.864h9.87V0H3.15V-29.19H7.938Zm16.3-22.344a2.966,2.966,0,0,1-2.184-.882,2.966,2.966,0,0,1-.882-2.184,2.966,2.966,0,0,1,.882-2.184,2.966,2.966,0,0,1,2.184-.882,2.916,2.916,0,0,1,2.142.882,2.966,2.966,0,0,1,.882,2.184,2.966,2.966,0,0,1-.882,2.184A2.916,2.916,0,0,1,24.234-26.208Zm2.352,3.066V0H21.8V-23.142ZM37.674-19.7a9.082,9.082,0,0,1,3.339-2.751,10.332,10.332,0,0,1,4.725-1.071,10.66,10.66,0,0,1,5.544,1.47,10.341,10.341,0,0,1,3.906,4.179,13.085,13.085,0,0,1,1.428,6.2,13.337,13.337,0,0,1-1.428,6.237,10.672,10.672,0,0,1-3.927,4.284A10.357,10.357,0,0,1,45.738.378a10.432,10.432,0,0,1-4.767-1.05,9.164,9.164,0,0,1-3.3-2.688V0H32.886V-31.08h4.788Zm14.07,8.022a8.261,8.261,0,0,0-.987-4.137,6.764,6.764,0,0,0-2.6-2.646,7,7,0,0,0-3.465-.9,6.794,6.794,0,0,0-3.423.924,6.88,6.88,0,0,0-2.6,2.688,8.38,8.38,0,0,0-.987,4.158,8.5,8.5,0,0,0,.987,4.179,6.846,6.846,0,0,0,2.6,2.709,6.794,6.794,0,0,0,3.423.924,6.754,6.754,0,0,0,3.465-.945,6.964,6.964,0,0,0,2.6-2.751A8.621,8.621,0,0,0,51.744-11.676ZM66.15-19.782a7.52,7.52,0,0,1,2.793-2.751,8.261,8.261,0,0,1,4.137-.987v4.956H71.862A5.831,5.831,0,0,0,67.6-17.136Q66.15-15.708,66.15-12.18V0H61.362V-23.142H66.15Zm9.744,8.106a12.807,12.807,0,0,1,1.449-6.174,10.621,10.621,0,0,1,3.948-4.179,10.577,10.577,0,0,1,5.523-1.491,10.1,10.1,0,0,1,4.767,1.071,9.674,9.674,0,0,1,3.255,2.667v-3.36h4.83V0h-4.83V-3.444a9.509,9.509,0,0,1-3.318,2.73A10.226,10.226,0,0,1,86.73.378a10.176,10.176,0,0,1-5.46-1.533,10.872,10.872,0,0,1-3.927-4.284A13.179,13.179,0,0,1,75.894-11.676Zm18.942.084a8.38,8.38,0,0,0-.987-4.158,6.928,6.928,0,0,0-2.583-2.688,6.758,6.758,0,0,0-3.444-.924,6.879,6.879,0,0,0-3.444.9,6.81,6.81,0,0,0-2.583,2.646,8.261,8.261,0,0,0-.987,4.137,8.621,8.621,0,0,0,.987,4.2,6.964,6.964,0,0,0,2.6,2.751,6.679,6.679,0,0,0,3.423.945A6.758,6.758,0,0,0,91.266-4.7a6.894,6.894,0,0,0,2.583-2.709A8.5,8.5,0,0,0,94.836-11.592Zm15.918-8.19a7.52,7.52,0,0,1,2.793-2.751,8.261,8.261,0,0,1,4.137-.987v4.956h-1.218a5.831,5.831,0,0,0-4.263,1.428q-1.449,1.428-1.449,4.956V0h-4.788V-23.142h4.788Zm32.172-3.36-14.2,34.02h-4.956l4.7-11.256-9.114-22.764H124.7l6.51,17.64,6.762-17.64Z" transform="translate(32.306 62)" fill="#00dc82" opacity="0.83"/></g><rect width="220" height="95" rx="28" fill="#1fc17f" opacity="0.18"/><path d="M33.894-29.19V0H29.106V-19.992L20.2,0H16.884L7.938-19.992V0H3.15V-29.19H8.316L18.564-6.3,28.77-29.19ZM50.232.378A11.852,11.852,0,0,1,44.31-1.113a10.711,10.711,0,0,1-4.158-4.2,12.669,12.669,0,0,1-1.512-6.279,12.426,12.426,0,0,1,1.554-6.258,10.734,10.734,0,0,1,4.242-4.2,12.309,12.309,0,0,1,6.006-1.47,12.309,12.309,0,0,1,6.006,1.47,10.734,10.734,0,0,1,4.242,4.2,12.426,12.426,0,0,1,1.554,6.258,12.168,12.168,0,0,1-1.6,6.258A11.051,11.051,0,0,1,56.3-1.113,12.529,12.529,0,0,1,50.232.378Zm0-4.158A7.125,7.125,0,0,0,53.7-4.662a6.72,6.72,0,0,0,2.625-2.646,8.507,8.507,0,0,0,1.008-4.284,8.684,8.684,0,0,0-.966-4.263A6.521,6.521,0,0,0,53.8-18.48a7.006,7.006,0,0,0-3.444-.882,6.889,6.889,0,0,0-3.423.882,6.3,6.3,0,0,0-2.5,2.625,9.008,9.008,0,0,0-.924,4.263,8.12,8.12,0,0,0,1.911,5.775A6.315,6.315,0,0,0,50.232-3.78Zm15.162-7.9a12.807,12.807,0,0,1,1.449-6.174,10.621,10.621,0,0,1,3.948-4.179,10.654,10.654,0,0,1,5.565-1.491,10.853,10.853,0,0,1,4.473.987,9.152,9.152,0,0,1,3.507,2.625V-31.08h4.83V0h-4.83V-3.486A8.964,8.964,0,0,1,81.081-.714,10.1,10.1,0,0,1,76.314.378a10.357,10.357,0,0,1-5.523-1.533,10.819,10.819,0,0,1-3.948-4.284A13.179,13.179,0,0,1,65.394-11.676Zm18.942.084a8.38,8.38,0,0,0-.987-4.158,6.928,6.928,0,0,0-2.583-2.688,6.758,6.758,0,0,0-3.444-.924,6.879,6.879,0,0,0-3.444.9,6.81,6.81,0,0,0-2.583,2.646,8.261,8.261,0,0,0-.987,4.137,8.621,8.621,0,0,0,.987,4.2,6.963,6.963,0,0,0,2.6,2.751,6.679,6.679,0,0,0,3.423.945A6.758,6.758,0,0,0,80.766-4.7a6.894,6.894,0,0,0,2.583-2.709A8.5,8.5,0,0,0,84.336-11.592Zm32.088-11.55V0h-4.788V-2.73a7.75,7.75,0,0,1-2.961,2.247,9.389,9.389,0,0,1-3.885.819A10.378,10.378,0,0,1,99.9-.8a8.192,8.192,0,0,1-3.4-3.36,10.9,10.9,0,0,1-1.239-5.376V-23.142H100v12.894a6.717,6.717,0,0,0,1.554,4.767A5.531,5.531,0,0,0,105.8-3.822a5.6,5.6,0,0,0,4.263-1.659,6.66,6.66,0,0,0,1.575-4.767V-23.142Zm11.088-7.938V0h-4.788V-31.08Zm27.51,18.942a14.969,14.969,0,0,1-.168,2.352H137.172a6.422,6.422,0,0,0,2.058,4.452,6.5,6.5,0,0,0,4.536,1.68,5.6,5.6,0,0,0,5.46-3.234h5.166a10.424,10.424,0,0,1-3.8,5.229A11.152,11.152,0,0,1,143.766.378a11.819,11.819,0,0,1-5.943-1.491,10.608,10.608,0,0,1-4.116-4.2,12.812,12.812,0,0,1-1.491-6.279,13.113,13.113,0,0,1,1.449-6.279,10.19,10.19,0,0,1,4.074-4.179,12.125,12.125,0,0,1,6.027-1.47,11.786,11.786,0,0,1,5.838,1.428,10.09,10.09,0,0,1,3.99,4.011A12.08,12.08,0,0,1,155.022-12.138Zm-5-1.512a5.449,5.449,0,0,0-1.89-4.242,6.757,6.757,0,0,0-4.578-1.6,6.149,6.149,0,0,0-4.242,1.575,6.582,6.582,0,0,0-2.1,4.263Z" transform="translate(31.712 62)" fill="#00dc82" opacity="0.83"/></g></g></svg>