<svg xmlns="http://www.w3.org/2000/svg" xmlns:xlink="http://www.w3.org/1999/xlink" width="1920" height="960" viewBox="0 0 1920 960">
  <defs>
    <style>
      .cls-1 {
        clip-path: url(#clip-cover);
      }

      .cls-2 {
        opacity: 0.102;
      }

      .cls-3 {
        fill: #0d2a47;
      }

      .cls-4, .cls-6, .cls-7 {
        fill: #00ffb0;
      }

      .cls-5 {
        fill: #fff;
      }

      .cls-6 {
        opacity: 0.596;
      }

      .cls-7 {
        opacity: 0.299;
      }

      .cls-8, .cls-9 {
        fill: none;
        stroke: #00ffb0;
      }

      .cls-8 {
        stroke-width: 6px;
      }

      .cls-9 {
        stroke-width: 5px;
      }

      .cls-10 {
        fill: url(#linear-gradient);
      }

      .cls-11 {
        fill: #f5f8f9;
      }

      .cls-12 {
        filter: url(#Rectangle_10);
      }
    </style>
    <filter id="Rectangle_10" x="1003.845" y="8.846" width="865.52" height="865.52" filterUnits="userSpaceOnUse">
      <feOffset dy="15" input="SourceAlpha"/>
      <feGaussianBlur stdDeviation="25" result="blur"/>
      <feFlood flood-color="#0d2a47" flood-opacity="0.102"/>
      <feComposite operator="in" in2="blur"/>
      <feComposite in="SourceGraphic"/>
    </filter>
    <linearGradient id="linear-gradient" x1="0.5" x2="0.5" y2="1" gradientUnits="objectBoundingBox">
      <stop offset="0" stop-color="#234567"/>
      <stop offset="1" stop-color="#0d2a47"/>
    </linearGradient>
    <clipPath id="clip-cover">
      <rect width="1920" height="960"/>
    </clipPath>
  </defs>
  <g id="cover" class="cls-1">
    <rect class="cls-11" width="1920" height="960"/>
    <g id="Group_23" data-name="Group 23" transform="translate(107.765 9.058)">
      <g id="Group_18" data-name="Group 18" class="cls-2" transform="translate(1421.498 -16.779)">
        <path id="Path_13" data-name="Path 13" class="cls-3" d="M221.684,597.034A11.431,11.431,0,1,1,210.255,585.6,11.428,11.428,0,0,1,221.684,597.034Z" transform="translate(-198.822 -585.6)"/>
        <path id="Path_14" data-name="Path 14" class="cls-3" d="M235.689,597.028A11.433,11.433,0,1,1,224.255,585.6,11.437,11.437,0,0,1,235.689,597.028Z" transform="translate(-137.813 -585.6)"/>
        <path id="Path_15" data-name="Path 15" class="cls-3" d="M249.684,597.029A11.431,11.431,0,1,1,238.255,585.6,11.428,11.428,0,0,1,249.684,597.029Z" transform="translate(-76.805 -585.595)"/>
        <path id="Path_16" data-name="Path 16" class="cls-3" d="M263.689,597.028A11.433,11.433,0,1,1,252.261,585.6,11.434,11.434,0,0,1,263.689,597.028Z" transform="translate(-15.796 -585.6)"/>
        <path id="Path_17" data-name="Path 17" class="cls-3" d="M277.688,597.029A11.433,11.433,0,1,1,266.26,585.6,11.428,11.428,0,0,1,277.688,597.029Z" transform="translate(45.208 -585.595)"/>
        <path id="Path_18" data-name="Path 18" class="cls-3" d="M291.683,597.028A11.431,11.431,0,1,1,280.255,585.6,11.426,11.426,0,0,1,291.683,597.028Z" transform="translate(106.22 -585.6)"/>
        <path id="Path_19" data-name="Path 19" class="cls-3" d="M221.684,610.107a11.431,11.431,0,1,1-11.428-11.428A11.429,11.429,0,0,1,221.684,610.107Z" transform="translate(-198.822 -528.605)"/>
        <path id="Path_20" data-name="Path 20" class="cls-3" d="M235.689,610.112a11.433,11.433,0,1,1-11.433-11.434A11.44,11.44,0,0,1,235.689,610.112Z" transform="translate(-137.813 -528.609)"/>
        <path id="Path_21" data-name="Path 21" class="cls-3" d="M249.684,610.107a11.431,11.431,0,1,1-11.428-11.428A11.429,11.429,0,0,1,249.684,610.107Z" transform="translate(-76.805 -528.605)"/>
        <path id="Path_22" data-name="Path 22" class="cls-3" d="M263.689,610.112a11.433,11.433,0,1,1-11.433-11.434A11.441,11.441,0,0,1,263.689,610.112Z" transform="translate(-15.796 -528.609)"/>
        <path id="Path_23" data-name="Path 23" class="cls-3" d="M277.693,610.107a11.436,11.436,0,1,1-11.433-11.428A11.437,11.437,0,0,1,277.693,610.107Z" transform="translate(45.208 -528.605)"/>
        <path id="Path_24" data-name="Path 24" class="cls-3" d="M291.683,610.107a11.431,11.431,0,1,1-11.428-11.428A11.426,11.426,0,0,1,291.683,610.107Z" transform="translate(106.22 -528.605)"/>
        <path id="Path_25" data-name="Path 25" class="cls-3" d="M221.684,623.19a11.431,11.431,0,1,1-11.428-11.433A11.425,11.425,0,0,1,221.684,623.19Z" transform="translate(-198.822 -471.614)"/>
        <path id="Path_26" data-name="Path 26" class="cls-3" d="M235.689,623.185a11.433,11.433,0,1,1-11.433-11.428A11.434,11.434,0,0,1,235.689,623.185Z" transform="translate(-137.813 -471.614)"/>
        <path id="Path_27" data-name="Path 27" class="cls-3" d="M249.689,623.19a11.433,11.433,0,1,1-11.439-11.433A11.433,11.433,0,0,1,249.689,623.19Z" transform="translate(-76.805 -471.614)"/>
        <path id="Path_28" data-name="Path 28" class="cls-3" d="M263.689,623.185a11.433,11.433,0,1,1-11.433-11.428A11.441,11.441,0,0,1,263.689,623.185Z" transform="translate(-15.796 -471.614)"/>
        <path id="Path_29" data-name="Path 29" class="cls-3" d="M277.689,623.181a11.433,11.433,0,1,1-11.433-11.423A11.433,11.433,0,0,1,277.689,623.181Z" transform="translate(45.212 -471.61)"/>
        <path id="Path_30" data-name="Path 30" class="cls-3" d="M291.683,623.185a11.431,11.431,0,1,1-11.428-11.428A11.423,11.423,0,0,1,291.683,623.185Z" transform="translate(106.22 -471.614)"/>
        <path id="Path_31" data-name="Path 31" class="cls-3" d="M221.684,636.269a11.431,11.431,0,1,1-11.428-11.433A11.42,11.42,0,0,1,221.684,636.269Z" transform="translate(-198.822 -414.619)"/>
        <path id="Path_32" data-name="Path 32" class="cls-3" d="M235.689,636.269a11.433,11.433,0,1,1-11.433-11.433A11.438,11.438,0,0,1,235.689,636.269Z" transform="translate(-137.813 -414.624)"/>
        <path id="Path_33" data-name="Path 33" class="cls-3" d="M249.689,636.264a11.433,11.433,0,1,1-11.439-11.428A11.438,11.438,0,0,1,249.689,636.264Z" transform="translate(-76.805 -414.619)"/>
        <path id="Path_34" data-name="Path 34" class="cls-3" d="M263.689,636.269a11.433,11.433,0,1,1-11.433-11.433A11.445,11.445,0,0,1,263.689,636.269Z" transform="translate(-15.796 -414.624)"/>
        <path id="Path_35" data-name="Path 35" class="cls-3" d="M277.689,636.26a11.433,11.433,0,1,1-11.433-11.423A11.429,11.429,0,0,1,277.689,636.26Z" transform="translate(45.212 -414.615)"/>
        <path id="Path_36" data-name="Path 36" class="cls-3" d="M291.683,636.269a11.431,11.431,0,1,1-11.428-11.433A11.437,11.437,0,0,1,291.683,636.269Z" transform="translate(106.22 -414.624)"/>
        <path id="Path_37" data-name="Path 37" class="cls-3" d="M221.684,649.349a11.431,11.431,0,1,1-11.428-11.434A11.42,11.42,0,0,1,221.684,649.349Z" transform="translate(-198.822 -357.624)"/>
        <path id="Path_38" data-name="Path 38" class="cls-3" d="M235.689,649.347a11.433,11.433,0,1,1-11.433-11.433A11.437,11.437,0,0,1,235.689,649.347Z" transform="translate(-137.813 -357.629)"/>
        <path id="Path_39" data-name="Path 39" class="cls-3" d="M249.689,649.343a11.433,11.433,0,1,1-11.439-11.428A11.437,11.437,0,0,1,249.689,649.343Z" transform="translate(-76.805 -357.624)"/>
        <path id="Path_40" data-name="Path 40" class="cls-3" d="M263.689,649.347a11.433,11.433,0,1,1-11.433-11.433A11.444,11.444,0,0,1,263.689,649.347Z" transform="translate(-15.796 -357.629)"/>
        <path id="Path_41" data-name="Path 41" class="cls-3" d="M277.689,649.343a11.433,11.433,0,1,1-11.439-11.428A11.428,11.428,0,0,1,277.689,649.343Z" transform="translate(45.212 -357.624)"/>
        <path id="Path_42" data-name="Path 42" class="cls-3" d="M291.683,649.347a11.431,11.431,0,1,1-11.428-11.433A11.436,11.436,0,0,1,291.683,649.347Z" transform="translate(106.22 -357.629)"/>
        <path id="Path_43" data-name="Path 43" class="cls-3" d="M221.689,662.422a11.433,11.433,0,1,1-11.433-11.428A11.433,11.433,0,0,1,221.689,662.422Z" transform="translate(-198.822 -300.629)"/>
        <path id="Path_44" data-name="Path 44" class="cls-3" d="M235.689,662.427a11.433,11.433,0,1,1-11.433-11.434A11.433,11.433,0,0,1,235.689,662.427Z" transform="translate(-137.813 -300.633)"/>
        <path id="Path_45" data-name="Path 45" class="cls-3" d="M249.689,662.422a11.433,11.433,0,1,1-11.439-11.428A11.428,11.428,0,0,1,249.689,662.422Z" transform="translate(-76.805 -300.629)"/>
        <path id="Path_46" data-name="Path 46" class="cls-3" d="M263.689,662.427a11.433,11.433,0,1,1-11.433-11.434A11.436,11.436,0,0,1,263.689,662.427Z" transform="translate(-15.796 -300.633)"/>
        <path id="Path_47" data-name="Path 47" class="cls-3" d="M277.689,662.427a11.433,11.433,0,1,1-11.433-11.434A11.433,11.433,0,0,1,277.689,662.427Z" transform="translate(45.212 -300.633)"/>
        <path id="Path_48" data-name="Path 48" class="cls-3" d="M291.683,662.427a11.431,11.431,0,1,1-11.428-11.434A11.425,11.425,0,0,1,291.683,662.427Z" transform="translate(106.22 -300.633)"/>
      </g>
      <g id="Group_20" data-name="Group 20" class="cls-2" transform="translate(1191.613 -16.779)">
        <path id="Path_16-2" data-name="Path 16" class="cls-3" d="M263.689,597.028A11.433,11.433,0,1,1,252.261,585.6,11.434,11.434,0,0,1,263.689,597.028Z" transform="translate(-240.822 -585.6)"/>
        <path id="Path_17-2" data-name="Path 17" class="cls-3" d="M277.688,597.029A11.433,11.433,0,1,1,266.26,585.6,11.428,11.428,0,0,1,277.688,597.029Z" transform="translate(-179.818 -585.595)"/>
        <path id="Path_18-2" data-name="Path 18" class="cls-3" d="M291.683,597.028A11.431,11.431,0,1,1,280.255,585.6,11.426,11.426,0,0,1,291.683,597.028Z" transform="translate(-118.805 -585.6)"/>
        <path id="Path_22-2" data-name="Path 22" class="cls-3" d="M263.689,610.112a11.433,11.433,0,1,1-11.433-11.434A11.441,11.441,0,0,1,263.689,610.112Z" transform="translate(-240.822 -528.609)"/>
        <path id="Path_23-2" data-name="Path 23" class="cls-3" d="M277.693,610.107a11.436,11.436,0,1,1-11.433-11.428A11.437,11.437,0,0,1,277.693,610.107Z" transform="translate(-179.818 -528.605)"/>
        <path id="Path_24-2" data-name="Path 24" class="cls-3" d="M291.683,610.107a11.431,11.431,0,1,1-11.428-11.428A11.426,11.426,0,0,1,291.683,610.107Z" transform="translate(-118.805 -528.605)"/>
        <path id="Path_28-2" data-name="Path 28" class="cls-3" d="M263.689,623.185a11.433,11.433,0,1,1-11.433-11.428A11.441,11.441,0,0,1,263.689,623.185Z" transform="translate(-240.822 -471.614)"/>
        <path id="Path_29-2" data-name="Path 29" class="cls-3" d="M277.689,623.181a11.433,11.433,0,1,1-11.433-11.423A11.433,11.433,0,0,1,277.689,623.181Z" transform="translate(-179.814 -471.61)"/>
        <path id="Path_30-2" data-name="Path 30" class="cls-3" d="M291.683,623.185a11.431,11.431,0,1,1-11.428-11.428A11.423,11.423,0,0,1,291.683,623.185Z" transform="translate(-118.805 -471.614)"/>
        <path id="Path_34-2" data-name="Path 34" class="cls-3" d="M263.689,636.269a11.433,11.433,0,1,1-11.433-11.433A11.445,11.445,0,0,1,263.689,636.269Z" transform="translate(-240.822 -414.624)"/>
        <path id="Path_35-2" data-name="Path 35" class="cls-3" d="M277.689,636.26a11.433,11.433,0,1,1-11.433-11.423A11.429,11.429,0,0,1,277.689,636.26Z" transform="translate(-179.814 -414.615)"/>
        <path id="Path_36-2" data-name="Path 36" class="cls-3" d="M291.683,636.269a11.431,11.431,0,1,1-11.428-11.433A11.437,11.437,0,0,1,291.683,636.269Z" transform="translate(-118.805 -414.624)"/>
        <path id="Path_40-2" data-name="Path 40" class="cls-3" d="M263.689,649.347a11.433,11.433,0,1,1-11.433-11.433A11.444,11.444,0,0,1,263.689,649.347Z" transform="translate(-240.822 -357.629)"/>
        <path id="Path_41-2" data-name="Path 41" class="cls-3" d="M277.689,649.343a11.433,11.433,0,1,1-11.439-11.428A11.428,11.428,0,0,1,277.689,649.343Z" transform="translate(-179.814 -357.624)"/>
        <path id="Path_42-2" data-name="Path 42" class="cls-3" d="M291.683,649.347a11.431,11.431,0,1,1-11.428-11.433A11.436,11.436,0,0,1,291.683,649.347Z" transform="translate(-118.805 -357.629)"/>
        <path id="Path_46-2" data-name="Path 46" class="cls-3" d="M263.689,662.427a11.433,11.433,0,1,1-11.433-11.434A11.436,11.436,0,0,1,263.689,662.427Z" transform="translate(-240.822 -300.633)"/>
        <path id="Path_47-2" data-name="Path 47" class="cls-3" d="M277.689,662.427a11.433,11.433,0,1,1-11.433-11.434A11.433,11.433,0,0,1,277.689,662.427Z" transform="translate(-179.814 -300.633)"/>
        <path id="Path_48-2" data-name="Path 48" class="cls-3" d="M291.683,662.427a11.431,11.431,0,1,1-11.428-11.434A11.425,11.425,0,0,1,291.683,662.427Z" transform="translate(-118.805 -300.633)"/>
      </g>
    </g>
    <path id="Path_97" data-name="Path 97" class="cls-3" d="M74.1-21.3H31.65L24.15,0H1.8l39-104.7H64.95L103.8,0H81.45ZM68.4-37.35,52.8-82.05,37.2-37.35ZM160.95-84.3q14.4,0,22.95,9.45t8.55,26.55V0h-21V-45.9q0-9.9-5.1-15.375T152.4-66.75q-9,0-14.4,5.85t-5.4,16.8V0H111.45V-83.1H132.6v16.65a26.476,26.476,0,0,1,10.875-13.125A32.327,32.327,0,0,1,160.95-84.3Zm43.95-22.65a10.664,10.664,0,0,1,3.6-8.325,13.628,13.628,0,0,1,9.45-3.225,13.628,13.628,0,0,1,9.45,3.225,10.664,10.664,0,0,1,3.6,8.325,10.5,10.5,0,0,1-3.6,8.175,13.628,13.628,0,0,1-9.45,3.225,13.628,13.628,0,0,1-9.45-3.225A10.5,10.5,0,0,1,204.9-106.95ZM228.45-83.1V0H207.3V-83.1Zm121.2-1.2q15.15,0,23.925,9.375T382.35-48.3V0h-21V-45.9q0-9.6-4.875-14.775T343.05-65.85q-8.85,0-14.1,5.55T323.7-44.1V0h-21V-45.9q0-9.6-4.875-14.775T284.4-65.85q-8.85,0-14.1,5.55t-5.25,16.2V0H243.9V-83.1h21.15v15.75a25.754,25.754,0,0,1,10.425-12.525A30.765,30.765,0,0,1,292.05-84.3a31.474,31.474,0,0,1,17.475,4.8A29.338,29.338,0,0,1,320.7-65.7a31.374,31.374,0,0,1,11.625-13.575A31.086,31.086,0,0,1,349.65-84.3Zm125.7,39.6a40.043,40.043,0,0,1-.75,7.2H413.7q.45,11.1,6,16.35a19.3,19.3,0,0,0,13.8,5.25,20.022,20.022,0,0,0,12.225-3.6,15.946,15.946,0,0,0,6.225-9.75H474.3a35.756,35.756,0,0,1-7.05,15.6,36.841,36.841,0,0,1-13.875,10.8,44.5,44.5,0,0,1-18.825,3.9,44.233,44.233,0,0,1-21.6-5.175A36.377,36.377,0,0,1,398.25-18.9Q393-28.5,393-41.55t5.25-22.725a35.782,35.782,0,0,1,14.7-14.775,44.758,44.758,0,0,1,21.6-5.1,43.778,43.778,0,0,1,21.525,5.1,35.946,35.946,0,0,1,14.25,14.025A40.706,40.706,0,0,1,475.35-44.7Zm-21.3-2.1q.45-10.2-5.325-15.45A20.3,20.3,0,0,0,434.55-67.5a20.775,20.775,0,0,0-14.4,5.25Q414.3-57,413.7-46.8Zm50.1,24.75V0h-22.8V-22.05Zm21.45-73.5a13.628,13.628,0,0,1-9.45-3.225,10.5,10.5,0,0,1-3.6-8.175,10.664,10.664,0,0,1,3.6-8.325,13.628,13.628,0,0,1,9.45-3.225,13.437,13.437,0,0,1,9.45,3.3,10.726,10.726,0,0,1,3.6,8.25,10.5,10.5,0,0,1-3.6,8.175A13.628,13.628,0,0,1,525.6-95.55ZM500.4,21.3h6q4.65,0,6.675-1.95T515.1,12.6V-83.1h21.15V12.6q0,27-27.15,27h-8.7ZM580.2-84.15q15.15,0,24.3,7.65t11.4,20.4H596.1a16.462,16.462,0,0,0-5.4-9.6q-4.2-3.6-10.95-3.6-5.4,0-8.4,2.55a8.587,8.587,0,0,0-3,6.9,7.014,7.014,0,0,0,2.4,5.55,17.289,17.289,0,0,0,6,3.3q3.6,1.2,10.35,2.85a106.438,106.438,0,0,1,15.375,4.425,25.44,25.44,0,0,1,10.2,7.35Q616.95-31.35,616.95-22.8a20.971,20.971,0,0,1-8.325,17.25Q600.3,1.05,586.2,1.05q-16.2,0-25.95-7.275T548.4-27h20.25a13.684,13.684,0,0,0,5.4,9.675Q578.7-13.8,586.2-13.8q5.4,0,8.25-2.625a8.85,8.85,0,0,0,2.85-6.825,7.539,7.539,0,0,0-2.475-5.85,16.708,16.708,0,0,0-6.15-3.45Q585-33.75,578.25-35.4a117.5,117.5,0,0,1-15.075-4.275,24.07,24.07,0,0,1-9.9-6.975q-4.125-4.8-4.125-13.2A21.611,21.611,0,0,1,557.4-77.4Q565.65-84.15,580.2-84.15Z" transform="translate(150 403)"/>
    <path id="Path_98" data-name="Path 98" class="cls-3" d="M24.96-42.3v31.44a11.277,11.277,0,0,1-2.97,8.25Q19.02.42,13.68.42,7.92.42,4.65-2.97T1.38-12.48H6.84A9.346,9.346,0,0,0,8.46-6.69a5.857,5.857,0,0,0,4.98,2.13,5.567,5.567,0,0,0,4.62-1.8,6.975,6.975,0,0,0,1.44-4.5V-42.3Zm20.46,8.94a13.535,13.535,0,0,1,8.13,2.4,12.508,12.508,0,0,1,4.65,6.42v-8.4h5.46V0H58.2V-8.4a12.508,12.508,0,0,1-4.65,6.42A13.535,13.535,0,0,1,45.42.42a14.931,14.931,0,0,1-7.8-2.04,14.11,14.11,0,0,1-5.37-5.85,19.447,19.447,0,0,1-1.95-8.97,19.633,19.633,0,0,1,1.95-9,14.071,14.071,0,0,1,5.37-5.88A14.931,14.931,0,0,1,45.42-33.36Zm1.56,4.86a10.575,10.575,0,0,0-8.07,3.21q-3.03,3.21-3.03,8.85t3.03,8.85a10.575,10.575,0,0,0,8.07,3.21,11.2,11.2,0,0,0,5.79-1.5,10.443,10.443,0,0,0,3.99-4.23,13.372,13.372,0,0,0,1.44-6.33,13.552,13.552,0,0,0-1.44-6.36,10.2,10.2,0,0,0-3.99-4.23A11.382,11.382,0,0,0,46.98-28.5ZM83.64-5.82l10.2-27.12h5.88L86.82,0H80.34L67.44-32.94h5.88Zm33.42-27.54a13.535,13.535,0,0,1,8.13,2.4,12.508,12.508,0,0,1,4.65,6.42v-8.4h5.46V0h-5.46V-8.4a12.508,12.508,0,0,1-4.65,6.42,13.535,13.535,0,0,1-8.13,2.4,14.931,14.931,0,0,1-7.8-2.04,14.109,14.109,0,0,1-5.37-5.85,19.447,19.447,0,0,1-1.95-8.97,19.633,19.633,0,0,1,1.95-9,14.071,14.071,0,0,1,5.37-5.88A14.931,14.931,0,0,1,117.06-33.36Zm1.56,4.86a10.575,10.575,0,0,0-8.07,3.21q-3.03,3.21-3.03,8.85t3.03,8.85a10.575,10.575,0,0,0,8.07,3.21,11.2,11.2,0,0,0,5.79-1.5,10.443,10.443,0,0,0,3.99-4.23,13.372,13.372,0,0,0,1.44-6.33,13.552,13.552,0,0,0-1.44-6.36,10.2,10.2,0,0,0-3.99-4.23A11.382,11.382,0,0,0,118.62-28.5Zm50.64,17.52a11.263,11.263,0,0,1-1.44,5.58,10.841,10.841,0,0,1-4.38,4.2A14.875,14.875,0,0,1,156.18.42a17.432,17.432,0,0,1-7.47-1.53,13.289,13.289,0,0,1-5.22-4.2,11.884,11.884,0,0,1-2.25-6.09h5.82a8.23,8.23,0,0,0,1.23,3.51,8.17,8.17,0,0,0,3,2.82A9.378,9.378,0,0,0,156-3.96a7.471,7.471,0,0,0,5.52-1.92,6.661,6.661,0,0,0,1.92-4.92,6.342,6.342,0,0,0-1.35-4.2,9.565,9.565,0,0,0-3.33-2.55,45.255,45.255,0,0,0-5.4-2.01,54.612,54.612,0,0,1-6.45-2.49,11.012,11.012,0,0,1-4.14-3.51,10.237,10.237,0,0,1-1.71-6.18,10.674,10.674,0,0,1,1.59-5.82,10.423,10.423,0,0,1,4.56-3.9,16.449,16.449,0,0,1,6.99-1.38q6.24,0,9.9,3.03a11.6,11.6,0,0,1,4.26,7.71h-5.88a7.953,7.953,0,0,0-2.58-4.44,8.124,8.124,0,0,0-5.7-1.92,7.8,7.8,0,0,0-5.28,1.71,6.038,6.038,0,0,0-1.98,4.83,5.98,5.98,0,0,0,1.29,3.99,8.979,8.979,0,0,0,3.21,2.4,51.67,51.67,0,0,0,5.28,1.95,53.552,53.552,0,0,1,6.57,2.52,11.1,11.1,0,0,1,4.23,3.63A10.852,10.852,0,0,1,169.26-10.98Zm20.4-22.38A16.03,16.03,0,0,1,200.1-30a14.233,14.233,0,0,1,5.1,9h-5.76a8.421,8.421,0,0,0-3.27-5.55,10.709,10.709,0,0,0-6.63-2.01,10.605,10.605,0,0,0-5.25,1.32,9.6,9.6,0,0,0-3.81,4.05,14.342,14.342,0,0,0-1.44,6.75,14.342,14.342,0,0,0,1.44,6.75,9.6,9.6,0,0,0,3.81,4.05,10.605,10.605,0,0,0,5.25,1.32,10.6,10.6,0,0,0,6.63-2.04,8.535,8.535,0,0,0,3.27-5.58h5.76a14.152,14.152,0,0,1-5.1,9.03A16.126,16.126,0,0,1,189.66.42a16.962,16.962,0,0,1-8.4-2.04,14.416,14.416,0,0,1-5.73-5.85,18.512,18.512,0,0,1-2.07-8.97,18.688,18.688,0,0,1,2.07-9,14.37,14.37,0,0,1,5.73-5.88A16.962,16.962,0,0,1,189.66-33.36Zm26.64,7.08a12.115,12.115,0,0,1,4.74-5.31,14.088,14.088,0,0,1,7.44-1.89v5.94H226.8a11.666,11.666,0,0,0-7.56,2.37q-2.94,2.37-2.94,7.83V0h-5.46V-32.94h5.46ZM231.42-42.6a3.134,3.134,0,0,1,1.02-2.43,3.852,3.852,0,0,1,2.7-.93,3.852,3.852,0,0,1,2.7.93,3.134,3.134,0,0,1,1.02,2.43,3.134,3.134,0,0,1-1.02,2.43,3.852,3.852,0,0,1-2.7.93,3.852,3.852,0,0,1-2.7-.93A3.134,3.134,0,0,1,231.42-42.6Zm6.42,9.66V0h-5.46V-32.94Zm25.44-.42a14.931,14.931,0,0,1,7.8,2.04,14.071,14.071,0,0,1,5.37,5.88,19.634,19.634,0,0,1,1.95,9,19.447,19.447,0,0,1-1.95,8.97,14.11,14.11,0,0,1-5.37,5.85,14.931,14.931,0,0,1-7.8,2.04,13.417,13.417,0,0,1-8.13-2.43,12.347,12.347,0,0,1-4.59-6.39v24H245.1V-32.94h5.46v8.4a12.347,12.347,0,0,1,4.59-6.39A13.417,13.417,0,0,1,263.28-33.36Zm-1.56,4.86a11.428,11.428,0,0,0-5.76,1.47,10.141,10.141,0,0,0-4.02,4.23,13.552,13.552,0,0,0-1.44,6.36,13.372,13.372,0,0,0,1.44,6.33,10.382,10.382,0,0,0,4.02,4.23,11.249,11.249,0,0,0,5.76,1.5,10.649,10.649,0,0,0,8.13-3.21q3.03-3.21,3.03-8.85t-3.03-8.85A10.649,10.649,0,0,0,261.72-28.5ZM299.76-4.8V0h-4.08q-5.04,0-7.53-2.4t-2.49-8.04V-28.2h-4.92v-4.74h4.92v-8.22h5.52v8.22h8.52v4.74h-8.52v17.88q0,3.18,1.17,4.35T296.4-4.8Zm31.98-28.56a13.535,13.535,0,0,1,8.13,2.4,12.508,12.508,0,0,1,4.65,6.42v-8.4h5.46V0h-5.46V-8.4a12.508,12.508,0,0,1-4.65,6.42,13.535,13.535,0,0,1-8.13,2.4,14.931,14.931,0,0,1-7.8-2.04,14.11,14.11,0,0,1-5.37-5.85,19.447,19.447,0,0,1-1.95-8.97,19.634,19.634,0,0,1,1.95-9,14.071,14.071,0,0,1,5.37-5.88A14.931,14.931,0,0,1,331.74-33.36Zm1.56,4.86a10.575,10.575,0,0,0-8.07,3.21q-3.03,3.21-3.03,8.85t3.03,8.85a10.575,10.575,0,0,0,8.07,3.21,11.2,11.2,0,0,0,5.79-1.5,10.443,10.443,0,0,0,3.99-4.23,13.372,13.372,0,0,0,1.44-6.33,13.552,13.552,0,0,0-1.44-6.36,10.2,10.2,0,0,0-3.99-4.23A11.382,11.382,0,0,0,333.3-28.5Zm41.22-4.98a12.3,12.3,0,0,1,9.3,3.69q3.54,3.69,3.54,10.65V0H381.9V-18.66q0-4.92-2.52-7.56a9.009,9.009,0,0,0-6.84-2.64,9.351,9.351,0,0,0-7.2,2.91q-2.7,2.91-2.7,8.49V0h-5.46V-32.94h5.46v7.8a11.221,11.221,0,0,1,4.47-6.18A12.959,12.959,0,0,1,374.52-33.48ZM393.3-42.6a3.134,3.134,0,0,1,1.02-2.43,3.852,3.852,0,0,1,2.7-.93,3.852,3.852,0,0,1,2.7.93,3.134,3.134,0,0,1,1.02,2.43,3.134,3.134,0,0,1-1.02,2.43,3.852,3.852,0,0,1-2.7.93,3.852,3.852,0,0,1-2.7-.93A3.134,3.134,0,0,1,393.3-42.6Zm6.42,9.66V0h-5.46V-32.94Zm47.76-.54a12.2,12.2,0,0,1,9.27,3.69q3.51,3.69,3.51,10.65V0H454.8V-18.66q0-4.86-2.37-7.44a8.4,8.4,0,0,0-6.51-2.58,8.945,8.945,0,0,0-6.93,2.85q-2.61,2.85-2.61,8.37V0h-5.46V-18.66q0-4.86-2.4-7.44a8.422,8.422,0,0,0-6.48-2.58,9.017,9.017,0,0,0-6.99,2.85q-2.61,2.85-2.61,8.37V0h-5.46V-32.94h5.46v7.5a10.7,10.7,0,0,1,4.29-5.97,12.475,12.475,0,0,1,7.11-2.07,12.526,12.526,0,0,1,7.29,2.13,11.59,11.59,0,0,1,4.41,6.27,11.907,11.907,0,0,1,4.62-6.21A12.771,12.771,0,0,1,447.48-33.48Zm33.24.12a13.535,13.535,0,0,1,8.13,2.4,12.508,12.508,0,0,1,4.65,6.42v-8.4h5.46V0H493.5V-8.4a12.508,12.508,0,0,1-4.65,6.42,13.535,13.535,0,0,1-8.13,2.4,14.931,14.931,0,0,1-7.8-2.04,14.11,14.11,0,0,1-5.37-5.85,19.447,19.447,0,0,1-1.95-8.97,19.634,19.634,0,0,1,1.95-9,14.071,14.071,0,0,1,5.37-5.88A14.931,14.931,0,0,1,480.72-33.36Zm1.56,4.86a10.575,10.575,0,0,0-8.07,3.21q-3.03,3.21-3.03,8.85t3.03,8.85a10.575,10.575,0,0,0,8.07,3.21,11.2,11.2,0,0,0,5.79-1.5,10.443,10.443,0,0,0,3.99-4.23,13.372,13.372,0,0,0,1.44-6.33,13.552,13.552,0,0,0-1.44-6.36,10.2,10.2,0,0,0-3.99-4.23A11.382,11.382,0,0,0,482.28-28.5Zm39.6,23.7V0H517.8q-5.04,0-7.53-2.4t-2.49-8.04V-28.2h-4.92v-4.74h4.92v-8.22h5.52v8.22h8.52v4.74H513.3v17.88q0,3.18,1.17,4.35t4.05,1.17Zm4.2-37.8a3.134,3.134,0,0,1,1.02-2.43,3.852,3.852,0,0,1,2.7-.93,3.852,3.852,0,0,1,2.7.93,3.134,3.134,0,0,1,1.02,2.43,3.134,3.134,0,0,1-1.02,2.43,3.852,3.852,0,0,1-2.7.93,3.852,3.852,0,0,1-2.7-.93A3.134,3.134,0,0,1,526.08-42.6Zm6.42,9.66V0h-5.46V-32.94Zm22.2-.42a17.476,17.476,0,0,1,8.49,2.04,14.6,14.6,0,0,1,5.88,5.88,18.26,18.26,0,0,1,2.13,9,18.089,18.089,0,0,1-2.13,8.97,14.648,14.648,0,0,1-5.88,5.85A17.476,17.476,0,0,1,554.7.42a17.476,17.476,0,0,1-8.49-2.04,14.845,14.845,0,0,1-5.91-5.85,17.886,17.886,0,0,1-2.16-8.97,18.055,18.055,0,0,1,2.16-9,14.794,14.794,0,0,1,5.91-5.88A17.476,17.476,0,0,1,554.7-33.36Zm0,4.8a11.413,11.413,0,0,0-5.43,1.32,9.924,9.924,0,0,0-4.02,4.05,13.641,13.641,0,0,0-1.53,6.75,13.507,13.507,0,0,0,1.53,6.69,9.924,9.924,0,0,0,4.02,4.05,11.413,11.413,0,0,0,5.43,1.32,11.413,11.413,0,0,0,5.43-1.32,9.924,9.924,0,0,0,4.02-4.05,13.507,13.507,0,0,0,1.53-6.69,13.641,13.641,0,0,0-1.53-6.75,9.924,9.924,0,0,0-4.02-4.05A11.413,11.413,0,0,0,554.7-28.56Zm39.48-4.92a12.3,12.3,0,0,1,9.3,3.69q3.54,3.69,3.54,10.65V0h-5.46V-18.66q0-4.92-2.52-7.56a9.009,9.009,0,0,0-6.84-2.64,9.352,9.352,0,0,0-7.2,2.91q-2.7,2.91-2.7,8.49V0h-5.46V-32.94h5.46v7.8a11.221,11.221,0,0,1,4.47-6.18A12.959,12.959,0,0,1,594.18-33.48ZM657.54-18.3a16.262,16.262,0,0,1-.24,3H630.96q.18,5.64,3.21,8.46a10.474,10.474,0,0,0,7.41,2.82,10.709,10.709,0,0,0,6.63-2.01,8.31,8.31,0,0,0,3.27-5.37h5.82a13.835,13.835,0,0,1-2.67,6.12,13.855,13.855,0,0,1-5.37,4.2,17.784,17.784,0,0,1-7.44,1.5,16.962,16.962,0,0,1-8.4-2.04,14.416,14.416,0,0,1-5.73-5.85,18.512,18.512,0,0,1-2.07-8.97,18.688,18.688,0,0,1,2.07-9,14.37,14.37,0,0,1,5.73-5.88,16.962,16.962,0,0,1,8.4-2.04,16.582,16.582,0,0,1,8.37,2.04,14.045,14.045,0,0,1,5.46,5.46A15.367,15.367,0,0,1,657.54-18.3Zm-5.52.36a11.206,11.206,0,0,0-1.2-6.12,8.772,8.772,0,0,0-3.78-3.66,11.508,11.508,0,0,0-5.22-1.2,10.8,10.8,0,0,0-7.56,2.79q-3.06,2.79-3.3,8.19Zm28.5-15.54a12.3,12.3,0,0,1,9.3,3.69q3.54,3.69,3.54,10.65V0H687.9V-18.66q0-4.92-2.52-7.56a9.009,9.009,0,0,0-6.84-2.64,9.352,9.352,0,0,0-7.2,2.91q-2.7,2.91-2.7,8.49V0h-5.46V-32.94h5.46v7.8a11.221,11.221,0,0,1,4.47-6.18A12.959,12.959,0,0,1,680.52-33.48Zm33.24.12a13.535,13.535,0,0,1,8.13,2.4,12.508,12.508,0,0,1,4.65,6.42v-8.4H732V.54a16.718,16.718,0,0,1-1.92,8.1,13.791,13.791,0,0,1-5.4,5.52,16.1,16.1,0,0,1-8.1,1.98q-6.66,0-10.86-3.21a14.166,14.166,0,0,1-5.34-8.67h5.4a9.352,9.352,0,0,0,3.63,5.19,11.621,11.621,0,0,0,6.87,1.89,10.074,10.074,0,0,0,7.35-2.85q2.91-2.85,2.91-7.95V-8.4a12.508,12.508,0,0,1-4.65,6.42,13.535,13.535,0,0,1-8.13,2.4,14.931,14.931,0,0,1-7.8-2.04,14.109,14.109,0,0,1-5.37-5.85,19.447,19.447,0,0,1-1.95-8.97,19.634,19.634,0,0,1,1.95-9,14.07,14.07,0,0,1,5.37-5.88A14.931,14.931,0,0,1,713.76-33.36Zm1.56,4.86a10.575,10.575,0,0,0-8.07,3.21q-3.03,3.21-3.03,8.85t3.03,8.85a10.575,10.575,0,0,0,8.07,3.21,11.2,11.2,0,0,0,5.79-1.5,10.442,10.442,0,0,0,3.99-4.23,13.371,13.371,0,0,0,1.44-6.33,13.552,13.552,0,0,0-1.44-6.36,10.2,10.2,0,0,0-3.99-4.23A11.382,11.382,0,0,0,715.32-28.5Zm22.92-14.1a3.134,3.134,0,0,1,1.02-2.43,3.852,3.852,0,0,1,2.7-.93,3.852,3.852,0,0,1,2.7.93,3.134,3.134,0,0,1,1.02,2.43,3.134,3.134,0,0,1-1.02,2.43,3.852,3.852,0,0,1-2.7.93,3.852,3.852,0,0,1-2.7-.93A3.134,3.134,0,0,1,738.24-42.6Zm6.42,9.66V0H739.2V-32.94Zm24.6-.54a12.3,12.3,0,0,1,9.3,3.69q3.54,3.69,3.54,10.65V0h-5.46V-18.66q0-4.92-2.52-7.56a9.009,9.009,0,0,0-6.84-2.64,9.352,9.352,0,0,0-7.2,2.91q-2.7,2.91-2.7,8.49V0h-5.46V-32.94h5.46v7.8a11.221,11.221,0,0,1,4.47-6.18A12.959,12.959,0,0,1,769.26-33.48ZM819.3-18.3a16.262,16.262,0,0,1-.24,3H792.72q.18,5.64,3.21,8.46a10.474,10.474,0,0,0,7.41,2.82,10.709,10.709,0,0,0,6.63-2.01,8.31,8.31,0,0,0,3.27-5.37h5.82a13.835,13.835,0,0,1-2.67,6.12,13.855,13.855,0,0,1-5.37,4.2,17.784,17.784,0,0,1-7.44,1.5,16.962,16.962,0,0,1-8.4-2.04,14.416,14.416,0,0,1-5.73-5.85,18.512,18.512,0,0,1-2.07-8.97,18.688,18.688,0,0,1,2.07-9,14.37,14.37,0,0,1,5.73-5.88,16.962,16.962,0,0,1,8.4-2.04,16.582,16.582,0,0,1,8.37,2.04,14.045,14.045,0,0,1,5.46,5.46A15.367,15.367,0,0,1,819.3-18.3Zm-5.52.36a11.206,11.206,0,0,0-1.2-6.12,8.772,8.772,0,0,0-3.78-3.66,11.508,11.508,0,0,0-5.22-1.2,10.8,10.8,0,0,0-7.56,2.79q-3.06,2.79-3.3,8.19ZM828.96-6.42V0h-6.6V-6.42Z" transform="translate(150 817)"/>
    <path id="Path_96" data-name="Path 96" class="cls-3" d="M99.3,0H78.15L30.75-72V0H9.6V-105.9H30.75l47.4,72.6v-72.6H99.3Zm94.95-83.1V0H173.1V-16.8A26.476,26.476,0,0,1,162.225-3.675,32.327,32.327,0,0,1,144.75,1.05q-14.4,0-22.95-9.45t-8.55-26.4V-83.1h21v45.9q0,9.9,5.1,15.375t13.8,5.475q9.15,0,14.55-5.85T173.1-39V-83.1Zm66,83.1-18.9-26.7L225.45,0H202.2l27.45-43.35L201.6-83.1h23.7l18.45,26.25,15.9-26.25H282.9L255-40.95,283.95,0ZM335.4-18.15V0H324.3q-13.95,0-21.375-6.75T295.5-29.25v-36H283.95V-83.1H295.5v-20.55h21.15V-83.1h18.6v17.85h-18.6v36.3q0,6,2.4,8.4t8.1,2.4Z" transform="translate(150 273)"/>
    <rect id="Rectangle_1" data-name="Rectangle 1" class="cls-4" width="228" height="86" rx="43" transform="translate(150 532)"/>
    <rect id="Rectangle_22" data-name="Rectangle 22" class="cls-4" width="248" height="86" rx="43" transform="translate(754 532)"/>
    <rect id="Rectangle_24" data-name="Rectangle 24" class="cls-4" width="326" height="86" rx="43" transform="translate(403 532)"/>
    <path id="Path_101" data-name="Path 101" class="cls-5" d="M-48.653-17.121l-1.17,5.343h5.031v4.992h-6.084L-52.319,0h-5.109l1.443-6.786H-63.16L-64.6,0h-5.109l1.443-6.786h-5.85v-4.992h6.9l1.17-5.343h-5.694v-4.992h6.747l1.443-6.747h5.109l-1.443,6.747h7.176l1.443-6.747h5.109L-47.6-22.113h5.187v4.992Zm-5.109,0h-7.176l-1.17,5.343h7.176Zm30.5,11.583H-34.3L-36.25,0h-5.811l10.14-27.222h6.279L-15.542,0h-5.811Zm-1.482-4.173L-28.8-21.333-32.857-9.711ZM9.77,0h-5.5L-8.054-18.72V0h-5.5V-27.534h5.5L4.271-8.658V-27.534h5.5Zm9.516-27.534V0h-5.5V-27.534Zm33.7.312V0h-5.46V-18.993L40.54,0H35.782L28.8-18.915V0H23.3V-27.222h6.669L38.239-6.747l8.112-20.475ZM62.5-23.166v7.137h9.75v4.212H62.5v7.41h10.92V0H57V-27.534H73.417v4.368Z" transform="translate(264 589)"/>
    <path id="Path_99" data-name="Path 99" class="cls-5" d="M-63.921-17.121l-1.17,5.343h5.031v4.992h-6.084L-67.587,0H-72.7l1.443-6.786h-7.176L-79.872,0h-5.109l1.443-6.786h-5.85v-4.992h6.9l1.17-5.343h-5.694v-4.992h6.747l1.443-6.747h5.109l-1.443,6.747h7.176l1.443-6.747h5.109l-1.443,6.747h5.187v4.992Zm-5.109,0h-7.176l-1.17,5.343H-70.2ZM-49.8-4.212h9.243V0H-55.3V-27.534h5.5ZM-32.76-27.534V0h-5.5V-27.534ZM-13.377-14.2a6.68,6.68,0,0,1,4,2.359,6.7,6.7,0,0,1,1.5,4.349A6.87,6.87,0,0,1-10.2-2.009Q-12.519,0-16.926,0H-28.743V-27.534H-17.16A9.9,9.9,0,0,1-10.745-25.7,6.276,6.276,0,0,1-8.5-20.553a6.419,6.419,0,0,1-1.345,4.212A6.258,6.258,0,0,1-13.377-14.2Zm-9.867-1.794h4.953a4.712,4.712,0,0,0,3.139-.917,3.272,3.272,0,0,0,1.073-2.632,3.362,3.362,0,0,0-1.053-2.652,4.765,4.765,0,0,0-3.237-.936h-4.875Zm5.226,11.5a5.181,5.181,0,0,0,3.354-.956,3.391,3.391,0,0,0,1.17-2.788,3.48,3.48,0,0,0-1.19-2.827,5.119,5.119,0,0,0-3.374-.995h-5.187v7.566ZM9.36,0,2.925-10.725H.507V0h-5.5V-27.534H5.5q4.8,0,7.312,2.34a8.021,8.021,0,0,1,2.515,6.162,7.945,7.945,0,0,1-1.735,5.226A8.564,8.564,0,0,1,8.58-11L15.444,0ZM.507-14.508H5.031q4.719,0,4.719-4.173a4.11,4.11,0,0,0-1.151-3.1,4.974,4.974,0,0,0-3.568-1.111H.507Zm34.32,8.97H23.79L21.84,0H16.029l10.14-27.222h6.279L42.549,0H36.738ZM33.345-9.711,29.289-21.333,25.233-9.711ZM58.89,0,52.455-10.725H50.037V0h-5.5V-27.534H55.029q4.8,0,7.313,2.34a8.021,8.021,0,0,1,2.516,6.162,7.945,7.945,0,0,1-1.736,5.226A8.564,8.564,0,0,1,58.11-11L64.974,0ZM50.037-14.508h4.524q4.719,0,4.719-4.173a4.11,4.11,0,0,0-1.15-3.1,4.974,4.974,0,0,0-3.569-1.111H50.037ZM89.778-27.534l-9.321,17.9V0H74.919V-9.633l-9.36-17.9h6.318l5.85,12.051,5.85-12.051Z" transform="translate(878 589)"/>
    <path id="Path_100" data-name="Path 100" class="cls-5" d="M-103.077-17.121l-1.17,5.343h5.031v4.992H-105.3L-106.743,0h-5.109l1.443-6.786h-7.176L-119.028,0h-5.109l1.443-6.786h-5.85v-4.992h6.9l1.17-5.343h-5.694v-4.992h6.747l1.443-6.747h5.109l-1.443,6.747h7.176l1.443-6.747h5.109l-1.443,6.747h5.187v4.992Zm-5.109,0h-7.176l-1.17,5.343h7.176Zm29.367-10.413V-8.112a8.357,8.357,0,0,1-2.2,6.182,8.249,8.249,0,0,1-6.1,2.2,9.094,9.094,0,0,1-6.669-2.418q-2.457-2.418-2.457-6.9h5.421a5.187,5.187,0,0,0,.878,3.237A3.081,3.081,0,0,0-87.36-4.68a2.784,2.784,0,0,0,2.3-.917,3.892,3.892,0,0,0,.741-2.516V-27.534Zm20.592,22H-69.264L-71.214,0h-5.811l10.14-27.222h6.279L-50.5,0h-5.811Zm-1.482-4.173-4.056-11.622L-67.821-9.711Zm15.054-17.823,7.371,21.8,7.41-21.8h5.889L-33.735,0h-7.059l-9.75-27.534Zm39.429,22H-16.263L-18.213,0h-5.811l10.14-27.222H-7.6L2.5,0H-3.315ZM-6.708-9.711l-4.056-11.622L-14.82-9.711ZM23.4-7.527a7.466,7.466,0,0,1-1.053,3.88A7.563,7.563,0,0,1,19.227-.8,10.817,10.817,0,0,1,14.2.273,13.055,13.055,0,0,1,8.97-.722,8.836,8.836,0,0,1,5.285-3.588,8.269,8.269,0,0,1,3.705-7.956h5.85A4.47,4.47,0,0,0,10.9-5.167a4.22,4.22,0,0,0,3.062,1.111,3.563,3.563,0,0,0,2.632-.916,3.194,3.194,0,0,0,.917-2.359,3.091,3.091,0,0,0-.741-2.126A5.407,5.407,0,0,0,14.9-10.8q-1.131-.507-3.12-1.17a30.842,30.842,0,0,1-4.212-1.7,7.786,7.786,0,0,1-2.789-2.438,6.983,6.983,0,0,1-1.15-4.173,6.785,6.785,0,0,1,2.555-5.6,10.5,10.5,0,0,1,6.766-2.048,10.717,10.717,0,0,1,6.962,2.106A7.949,7.949,0,0,1,22.854-20.2H16.926a4.129,4.129,0,0,0-1.248-2.437,3.875,3.875,0,0,0-2.769-.956,3.652,3.652,0,0,0-2.457.8,2.883,2.883,0,0,0-.936,2.321,2.885,2.885,0,0,0,.721,2.008,5.506,5.506,0,0,0,1.833,1.307,30.086,30.086,0,0,0,3.023,1.131A40.185,40.185,0,0,1,19.4-14.274a7.593,7.593,0,0,1,2.827,2.457A7.22,7.22,0,0,1,23.4-7.527Zm15.522-20.28a13.449,13.449,0,0,1,8.541,2.652,12.542,12.542,0,0,1,4.485,7.215H46.176a7.552,7.552,0,0,0-2.789-3.51,7.882,7.882,0,0,0-4.543-1.287A7.3,7.3,0,0,0,34.9-21.645a7.288,7.288,0,0,0-2.73,3.12,10.871,10.871,0,0,0-.975,4.758,10.774,10.774,0,0,0,.975,4.719,7.288,7.288,0,0,0,2.73,3.12,7.3,7.3,0,0,0,3.939,1.092,7.882,7.882,0,0,0,4.543-1.287,7.552,7.552,0,0,0,2.789-3.51h5.772a12.542,12.542,0,0,1-4.485,7.215A13.449,13.449,0,0,1,38.922.234a13.492,13.492,0,0,1-6.962-1.775,12.082,12.082,0,0,1-4.68-4.972,15.532,15.532,0,0,1-1.657-7.254,15.618,15.618,0,0,1,1.657-7.293,12.121,12.121,0,0,1,4.66-4.972A13.465,13.465,0,0,1,38.922-27.807ZM69.459,0,63.024-10.725H60.606V0h-5.5V-27.534H65.6q4.8,0,7.313,2.34a8.021,8.021,0,0,1,2.516,6.162,7.945,7.945,0,0,1-1.736,5.226A8.564,8.564,0,0,1,68.679-11L75.543,0ZM60.606-14.508H65.13q4.719,0,4.719-4.173a4.11,4.11,0,0,0-1.15-3.1,4.974,4.974,0,0,0-3.569-1.111H60.606ZM83.655-27.534V0h-5.5V-27.534Zm9.516,17.316V0h-5.5V-27.534H97.7q4.875,0,7.352,2.34a8.327,8.327,0,0,1,2.477,6.357,8.1,8.1,0,0,1-2.555,6.279q-2.554,2.34-7.273,2.34Zm3.939-4.407q4.836,0,4.836-4.212A4.19,4.19,0,0,0,100.815-22a5.215,5.215,0,0,0-3.705-1.092H93.171v8.463Zm31.746-12.909v4.368h-7.605V0h-5.5V-23.166h-7.566v-4.368Z" transform="translate(566 589)"/>
    <path id="Polygon_17" data-name="Polygon 17" class="cls-4" d="M48.6,14.3a10,10,0,0,1,17.152,0L105.263,80.2a10,10,0,0,1-8.576,15.143H17.657A10,10,0,0,1,9.081,80.2Z" transform="translate(1680.447 746.162)"/>
    <g id="Group_24" data-name="Group 24" transform="matrix(0.966, -0.259, 0.259, 0.966, 397.197, 218.421)">
      <g class="cls-12" transform="matrix(0.97, 0.26, -0.26, 0.97, -327.13, -313.78)">
        <rect id="Rectangle_10-2" data-name="Rectangle 10" class="cls-5" width="584.219" height="584.219" rx="200" transform="matrix(0.97, -0.26, 0.26, 0.97, 1078.85, 220.05)"/>
      </g>
      <path id="Path_68" data-name="Path 68" class="cls-5" d="M-301.566,343.583a11.155,11.155,0,0,0,7.829-3.243,11.133,11.133,0,0,0,3.243-7.816,11.148,11.148,0,0,0-3.244-7.829,11.184,11.184,0,0,0-7.828-3.229,11.177,11.177,0,0,0-7.816,3.232,11.176,11.176,0,0,0-3.229,7.827,11.18,11.18,0,0,0,3.23,7.816A11.13,11.13,0,0,0-301.566,343.583Z" transform="translate(1210.765 32.586)"/>
      <path id="Path_69" data-name="Path 69" class="cls-5" d="M-328.553,343.583a11.138,11.138,0,0,0,7.815-3.243,11.133,11.133,0,0,0,3.243-7.816,11.148,11.148,0,0,0-3.244-7.829,11.166,11.166,0,0,0-7.814-3.229,11.2,11.2,0,0,0-7.829,3.232,11.176,11.176,0,0,0-3.229,7.827,11.132,11.132,0,0,0,3.23,7.816A11.147,11.147,0,0,0-328.553,343.583Z" transform="translate(1200.443 32.586)"/>
      <path id="Path_70" data-name="Path 70" class="cls-5" d="M-355.553,343.583a11.139,11.139,0,0,0,7.817-3.244,11.172,11.172,0,0,0,3.242-7.814,11.194,11.194,0,0,0-3.244-7.829,11.166,11.166,0,0,0-7.814-3.229,11.2,11.2,0,0,0-7.829,3.232,11.176,11.176,0,0,0-3.229,7.827,11.132,11.132,0,0,0,3.23,7.816A11.152,11.152,0,0,0-355.553,343.583Z" transform="translate(1190.121 32.586)"/>
    </g>
    <g id="Group_28" data-name="Group 28" transform="translate(3.264 4.115)">
      <path id="Polygon_25" data-name="Polygon 25" class="cls-4" d="M23.394,7.153a5,5,0,0,1,8.577,0L50.826,38.6a5,5,0,0,1-4.288,7.571H8.827A5,5,0,0,1,4.539,38.6Z" transform="translate(590.713 197.965) rotate(90)"/>
      <path id="Polygon_27" data-name="Polygon 27" class="cls-6" d="M23.394,7.153a5,5,0,0,1,8.577,0L50.826,38.6a5,5,0,0,1-4.288,7.571H8.827A5,5,0,0,1,4.539,38.6Z" transform="translate(639.676 197.965) rotate(90)"/>
      <path id="Polygon_28" data-name="Polygon 28" class="cls-7" d="M23.394,7.153a5,5,0,0,1,8.577,0L50.826,38.6a5,5,0,0,1-4.288,7.571H8.827A5,5,0,0,1,4.539,38.6Z" transform="translate(688.639 197.965) rotate(90)"/>
    </g>
    <path id="Path_49" data-name="Path 49" class="cls-8" d="M0,1.98S306.79-1.6,400.265.367" transform="matrix(1, -0.017, 0.017, 1, 111.009, 838.465)"/>
    <path id="Path_50" data-name="Path 50" class="cls-9" d="M0,0S306.775,8.2,400.186,7.645" transform="translate(521.156 839.49) rotate(177)"/>
    <g id="Group_64" data-name="Group 64" transform="matrix(0.966, -0.259, 0.259, 0.966, 1270.003, 330.373)">
      <path id="Path_94" data-name="Path 94" class="cls-10" d="M237.374,34.514A143.445,143.445,0,0,0,34.514,237.375,143.5,143.5,0,0,0,210.17,258.714,14.971,14.971,0,1,0,194.657,233.1,114.545,114.545,0,1,1,230.2,198.937a14.97,14.97,0,1,0,24.889,16.641A143.1,143.1,0,0,0,237.374,34.514Z"/>
      <path id="Path_95" data-name="Path 95" class="cls-10" d="M197.61,141.224a25.377,25.377,0,0,0-38.095,22V226.45a25.321,25.321,0,0,0,38.095,22l54.475-31.61a25.453,25.453,0,0,0,0-44.008ZM237.1,194.839l-51.038,29.616V165.223Z" transform="translate(-69.376 -58.895)"/>
    </g>
  </g>
</svg>
